# xmcd
#
# Track frame offsets:
# 151
# 27296
# 54729
# 80704
# 108003
# 134960
# 157721
# 181184
# 212441
# 237228
# 265073
#
# Disc length: 3779 seconds
#
#
# Revision: 0
# Processed by: cddbd v1.5.1PL0 Copyright (c) Steve Scherf et al.
# Submitted via: FreeRIP 2.942 
#
DISCID=8d0ec10b
DTITLE=Chuppa Rustum - Chuppa Rustum
DYEAR=1900
DGENRE=
TTITLE0=Yeh Chaand Koi Deewana Hai
TTITLE1=Bangla Gaadi
TTITLE2=Tu Hai Mere Dil Mein
TTITLE3=Raja Ye Kya Kartray Ho
TTITLE4=Pyar Mein DIl To
TTITLE5=Tu Nikla Chuppa Rustam
TTITLE6=Meri Neend Janelagi hai
TTITLE7=Tere Aage Peche
TTITLE8=Mere Bina Tum
TTITLE9=Ae Sanam Meri Bahon
TTITLE10=Noori
EXTD=
EXTT0=
EXTT1=
EXTT2=
EXTT3=
EXTT4=
EXTT5=
EXTT6=
EXTT7=
EXTT8=
EXTT9=
EXTT10=
PLAYORDER=
